<?xml version="1.0" standalone="no"?><!DOCTYPE svg PUBLIC "-//W3C//DTD SVG 1.1//EN" "http://www.w3.org/Graphics/SVG/1.1/DTD/svg11.dtd"><svg t="1580895641420" class="icon" viewBox="0 0 1024 1024" version="1.1" xmlns="http://www.w3.org/2000/svg" p-id="2098" xmlns:xlink="http://www.w3.org/1999/xlink" width="200" height="200"><defs><style type="text/css"></style></defs><path d="M230.4 577.828571c-10.971429 7.314286-25.6 21.942857-29.257143 40.228572-7.314286 29.257143 3.657143 58.514286 21.942857 80.457143 29.257143 29.257143 73.142857 36.571429 91.428572 40.228571 51.2 3.657143 106.057143-21.942857 146.285714-51.2 25.6-18.285714 51.2-43.885714 69.485714-69.485714-58.514286-29.257143-135.314286-65.828571-212.114285-62.171429-36.571429 0-65.828571 10.971429-87.771429 21.942857z m753.371429 135.314286C1009.371429 650.971429 1024 585.142857 1024 512c0-281.6-230.4-512-512-512S0 230.4 0 512s230.4 512 512 512c164.571429 0 318.171429-80.457143 413.257143-212.114286-106.057143-54.857143-215.771429-106.057143-321.828572-157.257143-43.885714 47.542857-106.057143 98.742857-175.542857 117.028572-43.885714 14.628571-84.114286 18.285714-128 10.971428-40.228571-7.314286-73.142857-29.257143-91.428571-47.542857-10.971429-10.971429-18.285714-25.6-25.6-36.571428v3.657143s-3.657143-7.314286-7.314286-18.285715-3.657143-21.942857-3.657143-32.914285v-25.6c3.657143-21.942857 14.628571-43.885714 36.571429-65.828572C256 512 321.828571 508.342857 358.4 508.342857c51.2 0 138.971429 21.942857 212.114286 47.542857 21.942857-43.885714 32.914286-91.428571 40.228571-120.685714H303.542857V402.285714h157.257143V336.457143H270.628571v-32.914286h190.171429V234.057143c0-7.314286 0-18.285714 18.285714-18.285714h73.142857v84.114285h208.457143v32.914286h-208.457143V402.285714h164.571429s-18.285714 91.428571-69.485714 182.857143c120.685714 43.885714 281.6 106.057143 336.457143 128z" fill="#00ABEF" p-id="2099"></path></svg>