<?xml version="1.0" standalone="no"?><!DOCTYPE svg PUBLIC "-//W3C//DTD SVG 1.1//EN" "http://www.w3.org/Graphics/SVG/1.1/DTD/svg11.dtd"><svg t="1580895662545" class="icon" viewBox="0 0 1024 1024" version="1.1" xmlns="http://www.w3.org/2000/svg" p-id="2831" xmlns:xlink="http://www.w3.org/1999/xlink" width="200" height="200"><defs><style type="text/css"></style></defs><path d="M965.78696 675.741558c-19.306129-125.489841-106.183712-202.714359-106.183711-202.714359 9.653065-115.836776-38.612259-135.142906-38.612259-135.142906C811.337925-9.626036 512.092919 0.027029 512.092919 0.027029c-9.653065 0-308.898071-9.653065-318.551135 337.857264 0 0-48.265324 19.306129-38.612259 135.142906 0 0-86.877582 77.224518-106.183712 202.714359 0 0-9.653065 212.367424 106.183712 28.959194 0 0 28.959194 67.571453 67.571453 135.142906 0 0-86.877582 28.959194-77.224518 106.183712 0 0 0 86.877582 173.755165 77.224517 0 0 125.489841-9.653065 164.1021-67.571452h38.612259c38.612259 57.918388 164.1021 67.571453 164.1021 67.571452 183.408229 9.653065 173.755165-77.224518 173.755165-77.224517 9.653065-77.224518-77.224518-106.183712-77.224518-106.183712 57.918388-67.571453 86.877582-135.142906 86.877582-135.142906 106.183712 183.408229 96.530647-28.959194 96.530647-28.959194z" fill="#7BD9FE" p-id="2832"></path></svg>