<?xml version="1.0" standalone="no"?><!DOCTYPE svg PUBLIC "-//W3C//DTD SVG 1.1//EN" "http://www.w3.org/Graphics/SVG/1.1/DTD/svg11.dtd"><svg t="1580892273206" class="icon" viewBox="0 0 1024 1024" version="1.1" xmlns="http://www.w3.org/2000/svg" p-id="2102" xmlns:xlink="http://www.w3.org/1999/xlink" width="200" height="200"><defs><style type="text/css"></style></defs><path d="M399.602 623.631c0-132.638 126.505-242.276 282.145-244.27h18.86l-4.14-18.554C666.413 227.25 521.354 126.658 357.434 126.658c-185.694 0-337.347 128.499-337.347 286.438 0 88.477 45.236 164.84 134.632 227.249l-33.58 101.204 117.764-58.882 19.167 3.833a464.925 464.925 0 0 0 98.75 13.034c10.581 0 21.315 0 31.589-1.38l-1.38-14.414 1.993 14.414h4.907l17.174-2.453-4.6-16.714a202.255 202.255 0 0 1-6.9-55.356z m-30.668 0a223.262 223.262 0 0 0 4.447 44.928h-15.334a432.57 432.57 0 0 1-92.003-12.42l-20.701-3.527a30.668 30.668 0 0 0-19.934 2.607l-51.522 25.76 10.274-30.667a30.668 30.668 0 0 0-11.5-34.808C92.003 558.922 51.368 490.686 51.368 413.096c0-141.072 138.005-255.77 306.678-255.77 141.686 0 268.65 81.423 304.226 192.134-163.767 11.04-293.339 130.492-293.339 274.171z" p-id="2103"></path><path d="M995.632 646.632c0-130.799-129.265-241.203-282.144-241.203-155.793 0-282.605 108.258-282.605 241.203s126.812 241.05 282.605 241.05a408.19 408.19 0 0 0 99.21-16.561l92.004 49.988-25.148-83.263c74.83-55.815 116.078-124.205 116.078-191.214zM860.847 813.465a30.668 30.668 0 0 0-10.887 33.121l3.527 11.808-25.455-14.261a30.668 30.668 0 0 0-14.567-3.68 29.288 29.288 0 0 0-7.36 0.92 391.935 391.935 0 0 1-92.004 15.334c-138.925 0-251.936-94.304-251.936-210.382S575.175 435.79 714.1 435.79c136.319 0 251.477 96.45 251.477 210.535-0.614 57.35-37.568 116.691-104.731 167.14zM239.823 285.518a42.935 42.935 0 1 0 42.935 42.935 42.935 42.935 0 0 0-42.935-42.935z m266.197 42.935a42.935 42.935 0 1 0-42.935 42.935 42.935 42.935 0 0 0 42.935-42.935z" p-id="2104"></path><path d="M600.783 534.08a33.735 33.735 0 1 0 33.735 33.736 33.581 33.581 0 0 0-33.735-33.735z m183.088 0a33.735 33.735 0 1 0 33.734 33.736 33.581 33.581 0 0 0-33.734-33.735z" p-id="2105"></path></svg>